@startuml

left to right direction
<<<<<<< HEAD
=======
skinparam classAttributeIconSize 0

>>>>>>> cb36527e6c4061f9258a908a409048425a2f9619
class Menu
{
    Opret Bil-journal
    Ændre bil-Status
    Tilføj Kunde
    Lejekontrakt
}
<<<<<<< HEAD
Menu "1" -- "1*" Opretbiljournal
Menu "1" -- "1" ÆndreStatus
Menu "1" -- "1*" TilføjKunde
Menu "1" -- "1*" Lejekontrakt
=======
Menu "1" --- "1" Opretbiljournal
Menu "1" -- "1" ÆndreStatus
Menu "1" -- "1" TilføjKunde
Menu "1" -- "1" lblalb
>>>>>>> cb36527e6c4061f9258a908a409048425a2f9619

class Opretbiljournal 
{
    Kategori
    Navn
    Mærke
    Målgruppe
<<<<<<< HEAD
    Status
=======
    +Status
    {method} OpretBiljournal()
>>>>>>> cb36527e6c4061f9258a908a409048425a2f9619
}

class ÆndreStatus
{
    Tilgængelig
}

class TilføjKunde
{
    Navn
    Tlf
    Mail
    Køretøj

}

class Lejekontrakt
{
    Navn
    Tlf
    Mail
    Køretøj
    Print
}


@enduml